# xmcd
#
# Track frame offsets:
#   150
#   10324
#   22669
#   31251
#   40948
#   51299
#   63947
#   75503
#   87588
#   100032
#   111421
#   122840
#   133806
#   146473
#   157631
#   166881
#   176565
#   188031
#   198561
#   208762
#   221669
#   232383
#
# Disc length: 3214 seconds
#
# Revision: 0
# Processed by: cddbd v1.5.2PL0 Copyright (c) Steve Scherf et al.
# Submitted via: uFREEDB 1.6.0
#
DISCID=2f0c8c16
DTITLE=Reeves, Jim - Gentleman Jim and He'll Have To Go
DYEAR=1900
DGENRE=Country
TTITLE0=Gentleman Jim - Memories Are Made Of This
TTITLE1=Gentleman Jim - Roses Are Red
TTITLE2=Gentleman Jim - After Loving You
TTITLE3=Gentleman Jim - Stand In
TTITLE4=Gentleman Jim - Waltzing On Top Of The World
TTITLE5=Gentleman Jim - When You Are Gone
TTITLE6=Gentleman Jim - Just Out Of Reach
TTITLE7=Gentleman Jim - I Love You Because
TTITLE8=Gentleman Jim - I'd Fight The World
TTITLE9=Gentleman Jim - The One That Got Away
TTITLE10=Gentleman Jim - Once Upon ATime
TTITLE11=Gentleman Jim - I Never Pass There Anymore
TTITLE12=He'll Have To Go - Four Walls
TTITLE13=He'll Have To Go - Anna Marie
TTITLE14=He'll Have To Go - Billy Bayou
TTITLE15=He'll Have To Go - After A While
TTITLE16=He'll Have To Go - I Missed Me
TTITLE17=He'll Have To Go - He'll Have To Go
TTITLE18=He'll Have To Go - Am I Loosing you
TTITLE19=He'll Have To Go - Danny Boy
TTITLE20=He'll Have To Go - Satan Can't Hold Me
TTITLE21=He'll Have To Go - Overnight
EXTD=
EXTT0=
EXTT1=
EXTT2=
EXTT3=
EXTT4=
EXTT5=
EXTT6=
EXTT7=
EXTT8=
EXTT9=
EXTT10=
EXTT11=
EXTT12=
EXTT13=
EXTT14=
EXTT15=
EXTT16=
EXTT17=
EXTT18=
EXTT19=
EXTT20=
EXTT21=
PLAYORDER=
